<svg width="512" height="517" viewBox="0 0 512 517" fill="none" xmlns="http://www.w3.org/2000/svg">
<path d="M291.58 416.552V155.052V88.5524L44.0796 196.552L137.08 216.552L213.58 155.052V453.052L167.58 311.052H2.57959L213.58 503.552L291.58 416.552Z" fill="white" stroke="#FF0000" stroke-width="2"/>
<path d="M367.58 61.5524L292.08 230.052L367.58 430.052L508.58 479.552L313.08 230.052L484.58 61.5524H367.58Z" fill="white" stroke="#FF0000" stroke-width="2"/>
<path d="M309.08 45.5524L43.5796 160.552L269.08 1.05237L492.08 37.0524L309.08 45.5524Z" fill="white" stroke="#FF0000" stroke-width="2"/>
<path d="M320.08 438.052L248.58 515.552L477.58 484.552L320.08 438.052Z" fill="white"/>
<path d="M364.58 227.552L490.58 105.552L502.58 427.052L364.58 227.552Z" fill="white"/>
<path d="M320.08 438.052L248.58 515.552L477.58 484.552L320.08 438.052Z" stroke="#FF0000" stroke-width="2"/>
<path d="M364.58 227.552L490.58 105.552L502.58 427.052L364.58 227.552Z" stroke="#FF0000" stroke-width="2"/>
<path d="M12.0796 257.552L37.5796 220.052L112.58 235.536L50.0875 266.209L152.58 289.552L3.57959 289.036L50.0875 266.209L12.0796 257.552Z" fill="white"/>
<path d="M37.5796 220.052L12.0796 257.552L152.58 289.552L3.57959 289.036L112.58 235.536L37.5796 220.052Z" stroke="#FF0000" stroke-width="2"/>
</svg>
