<svg width="1716" height="535" viewBox="0 0 1716 535" fill="none" xmlns="http://www.w3.org/2000/svg">
<g clip-path="url(#clip0_1187_192)">
<path d="M315 421V159.5V93L67.5 201L160.5 221L237 159.5V457.5L191 315.5H26L237 508L315 421Z" fill="black" stroke="black"/>
<path d="M391 66L315.5 234.5L391 434.5L532 484L336.5 234.5L508 66H391Z" fill="#FF0000"/>
<path d="M663.6 384C638.8 384 617.467 379.2 599.6 369.6C581.733 360 568 346.933 558.4 330.4C548.8 313.6 544 294.4 544 272.8C544 256.8 546.667 242 552 228.4C557.333 214.8 564.8 203.067 574.4 193.2C584.267 183.067 595.733 175.333 608.8 170C622.133 164.4 636.667 161.6 652.4 161.6C668.133 161.6 682.4 164.4 695.2 170C708.267 175.333 719.467 183.067 728.8 193.2C738.133 203.067 745.2 214.8 750 228.4C755.067 242 757.333 256.8 756.8 272.8L756.4 289.6H588.8L579.6 251.6H692L684.4 259.6V252.4C684.4 247.333 683.067 242.933 680.4 239.2C678 235.2 674.533 232.133 670 230C665.467 227.867 660.133 226.8 654 226.8C646.267 226.8 639.733 228.4 634.4 231.6C629.067 234.8 624.933 239.333 622 245.2C619.333 251.067 618 258.133 618 266.4C618 276 620 284.4 624 291.6C628.267 298.8 634.4 304.4 642.4 308.4C650.667 312.4 660.8 314.4 672.8 314.4C680.8 314.4 687.6 313.467 693.2 311.6C699.067 309.467 705.2 306.133 711.6 301.6L748.8 354C738.933 361.733 729.2 367.733 719.6 372C710.267 376.267 700.933 379.333 691.6 381.2C682.533 383.067 673.2 384 663.6 384ZM917.603 380L889.203 326.4L857.203 281.2L776.803 166H872.003L898.403 214.8L932.803 262.4L1012.8 380H917.603ZM773.203 380L860.803 252.4L902.803 302.4L868.403 380H773.203ZM922.803 294.4L880.803 244.4L915.603 166H1010.8L922.803 294.4ZM1033.87 467.6L1003.07 404.8C1016.67 404.8 1026.94 403.333 1033.87 400.4C1041.07 397.733 1045.87 392.533 1048.27 384.8C1050.94 377.333 1052.27 366.267 1052.27 351.6V166H1133.47V370.8C1133.47 394.533 1129.74 413.467 1122.27 427.6C1115.07 441.733 1104.14 451.867 1089.47 458C1074.81 464.4 1056.27 467.6 1033.87 467.6ZM1093.87 127.2C1079.47 127.2 1068.14 123.867 1059.87 117.2C1051.87 110.533 1047.87 101.067 1047.87 88.8C1047.87 77.6 1052.01 68.4 1060.27 61.2C1068.54 54 1079.74 50.4 1093.87 50.4C1108.27 50.4 1119.47 53.7333 1127.47 60.4C1135.74 67.0667 1139.87 76.5333 1139.87 88.8C1139.87 100 1135.74 109.2 1127.47 116.4C1119.21 123.6 1108.01 127.2 1093.87 127.2ZM1294.09 384C1270.89 384 1250.22 379.2 1232.09 369.6C1213.95 360 1199.69 346.933 1189.29 330.4C1178.89 313.6 1173.69 294.4 1173.69 272.8C1173.69 251.2 1178.89 232.133 1189.29 215.6C1199.69 198.8 1213.95 185.6 1232.09 176C1250.22 166.4 1270.89 161.6 1294.09 161.6C1317.29 161.6 1337.82 166.4 1355.69 176C1373.82 185.6 1387.95 198.8 1398.09 215.6C1408.49 232.133 1413.69 251.2 1413.69 272.8C1413.69 294.4 1408.49 313.6 1398.09 330.4C1387.95 346.933 1373.82 360 1355.69 369.6C1337.82 379.2 1317.29 384 1294.09 384ZM1294.09 316C1301.29 316 1307.69 314.133 1313.29 310.4C1319.15 306.667 1323.69 301.6 1326.89 295.2C1330.09 288.533 1331.69 281.067 1331.69 272.8C1331.69 264.267 1330.09 256.8 1326.89 250.4C1323.69 243.733 1319.15 238.533 1313.29 234.8C1307.69 231.067 1301.29 229.2 1294.09 229.2C1286.62 229.2 1279.95 231.067 1274.09 234.8C1268.49 238.533 1263.95 243.733 1260.49 250.4C1257.29 256.8 1255.69 264.267 1255.69 272.8C1255.69 281.067 1257.29 288.533 1260.49 295.2C1263.95 301.6 1268.49 306.667 1274.09 310.4C1279.95 314.133 1286.62 316 1294.09 316ZM1558.15 384C1534.95 384 1514.28 379.2 1496.15 369.6C1478.02 360 1463.75 346.933 1453.35 330.4C1442.95 313.6 1437.75 294.4 1437.75 272.8C1437.75 251.2 1442.95 232.133 1453.35 215.6C1463.75 198.8 1478.02 185.6 1496.15 176C1514.28 166.4 1534.95 161.6 1558.15 161.6C1581.35 161.6 1601.88 166.4 1619.75 176C1637.88 185.6 1652.02 198.8 1662.15 215.6C1672.55 232.133 1677.75 251.2 1677.75 272.8C1677.75 294.4 1672.55 313.6 1662.15 330.4C1652.02 346.933 1637.88 360 1619.75 369.6C1601.88 379.2 1581.35 384 1558.15 384ZM1558.15 316C1565.35 316 1571.75 314.133 1577.35 310.4C1583.22 306.667 1587.75 301.6 1590.95 295.2C1594.15 288.533 1595.75 281.067 1595.75 272.8C1595.75 264.267 1594.15 256.8 1590.95 250.4C1587.75 243.733 1583.22 238.533 1577.35 234.8C1571.75 231.067 1565.35 229.2 1558.15 229.2C1550.68 229.2 1544.02 231.067 1538.15 234.8C1532.55 238.533 1528.02 243.733 1524.55 250.4C1521.35 256.8 1519.75 264.267 1519.75 272.8C1519.75 281.067 1521.35 288.533 1524.55 295.2C1528.02 301.6 1532.55 306.667 1538.15 310.4C1544.02 314.133 1550.68 316 1558.15 316Z" fill="black"/>
<circle cx="1094" cy="84" r="50" fill="#FF0000"/>
</g>
<defs>
<clipPath id="clip0_1187_192">
<rect width="1716" height="535" fill="white"/>
</clipPath>
</defs>
</svg>
